<svg width="539" height="668" viewBox="0 0 539 668" fill="none" xmlns="http://www.w3.org/2000/svg">
<path d="M269.667 34V67.3333M505.333 131.667L481.667 155.333M34 131.667L57.6667 155.333" stroke="#EEDC82" stroke-width="66.6667" stroke-linecap="round" stroke-linejoin="round"/>
<path d="M436.333 367.333C436.215 325.909 420.674 286.013 392.741 255.423C364.807 224.834 326.483 205.743 285.24 201.872C243.996 198.002 202.789 209.629 169.652 234.488C136.515 259.346 113.823 295.654 106 336.333C101.512 359.644 102.169 383.655 107.927 406.685C113.684 429.715 124.403 451.21 139.333 469.667C159.018 493.613 169.744 523.669 169.667 554.667V600.667C169.667 609.507 173.179 617.986 179.43 624.237C185.681 630.488 194.159 634 203 634H336.333C345.174 634 353.652 630.488 359.904 624.237C366.155 617.986 369.667 609.507 369.667 600.667V554.667C369.622 524.294 380.106 494.845 399.333 471.333C423.289 441.97 436.36 405.229 436.333 367.333Z" stroke="#EEDC82" stroke-width="66.6667" stroke-linecap="round" stroke-linejoin="round"/>
</svg>
