<svg width="100%" height="100%" viewBox="0 0 818 239" fill="none" xmlns="http://www.w3.org/2000/svg">
<path d="M137.625 239H103.25V179C100.667 180.5 98 181.958 95.25 183.375C92.5833 184.792 89.7917 186.083 86.875 187.25C84.0417 188.333 81.125 189.208 78.125 189.875C75.2083 190.542 72.25 190.875 69.25 190.875C59.8333 190.875 50.9583 189.167 42.625 185.75C34.375 182.25 27.125 177.375 20.875 171.125C14.7083 164.875 9.83333 157.417 6.25 148.75C2.66667 140 0.875 130.375 0.875 119.875C0.875 109.292 2.66667 99.6667 6.25 91C9.83333 82.25 14.7083 74.7917 20.875 68.625C27.125 62.4583 34.375 57.7083 42.625 54.375C50.9583 50.9583 59.8333 49.25 69.25 49.25C73.5833 49.25 77.8333 49.7917 82 50.875C86.25 51.9583 90.375 53.4583 94.375 55.375C98.375 57.2083 102.167 59.4167 105.75 62C109.417 64.5833 112.875 67.3333 116.125 70.25L129.375 54.375H137.625V239ZM103.25 119.875C103.25 115.208 102.333 110.708 100.5 106.375C98.75 101.958 96.3333 98.0833 93.25 94.75C90.1667 91.3333 86.5417 88.625 82.375 86.625C78.2917 84.5417 73.9167 83.5 69.25 83.5C64.5833 83.5 60.1667 84.375 56 86.125C51.9167 87.7917 48.3333 90.2083 45.25 93.375C42.25 96.5417 39.875 100.375 38.125 104.875C36.375 109.292 35.5 114.292 35.5 119.875C35.5 125.625 36.375 130.792 38.125 135.375C39.875 139.875 42.25 143.667 45.25 146.75C48.3333 149.833 51.9167 152.208 56 153.875C60.1667 155.458 64.5833 156.25 69.25 156.25C73.9167 156.25 78.2917 155.25 82.375 153.25C86.5417 151.167 90.1667 148.458 93.25 145.125C96.3333 141.708 98.75 137.833 100.5 133.5C102.333 129.083 103.25 124.542 103.25 119.875ZM262.125 172.375C259.375 174.875 256.417 177.25 253.25 179.5C250.167 181.667 246.917 183.583 243.5 185.25C240.083 186.833 236.542 188.083 232.875 189C229.292 190 225.625 190.5 221.875 190.5C213.625 190.5 205.875 189.042 198.625 186.125C191.375 183.208 185 179.083 179.5 173.75C174.083 168.333 169.792 161.792 166.625 154.125C163.542 146.375 162 137.708 162 128.125V54.125H196V128.125C196 132.625 196.667 136.667 198 140.25C199.417 143.75 201.292 146.708 203.625 149.125C205.958 151.542 208.667 153.375 211.75 154.625C214.917 155.875 218.292 156.5 221.875 156.5C225.375 156.5 228.667 155.708 231.75 154.125C234.917 152.458 237.667 150.292 240 147.625C242.333 144.958 244.167 141.958 245.5 138.625C246.833 135.208 247.5 131.708 247.5 128.125V54.125H281.625V188H273.375L262.125 172.375ZM437.125 119.875C437.125 129.875 435.333 139.208 431.75 147.875C428.167 156.458 423.292 163.917 417.125 170.25C410.958 176.5 403.708 181.458 395.375 185.125C387.125 188.708 378.25 190.5 368.75 190.5C359.333 190.5 350.458 188.708 342.125 185.125C333.875 181.458 326.625 176.5 320.375 170.25C314.208 163.917 309.333 156.458 305.75 147.875C302.167 139.208 300.375 129.875 300.375 119.875C300.375 109.708 302.167 100.292 305.75 91.625C309.333 82.9583 314.208 75.5 320.375 69.25C326.625 62.9167 333.875 57.9583 342.125 54.375C350.458 50.7917 359.333 49 368.75 49C378.25 49 387.125 50.7083 395.375 54.125C403.708 57.4583 410.958 62.25 417.125 68.5C423.292 74.6667 428.167 82.125 431.75 90.875C435.333 99.5417 437.125 109.208 437.125 119.875ZM402.75 119.875C402.75 114.375 401.833 109.417 400 105C398.25 100.5 395.833 96.6667 392.75 93.5C389.667 90.25 386.042 87.7917 381.875 86.125C377.792 84.375 373.417 83.5 368.75 83.5C364.083 83.5 359.667 84.375 355.5 86.125C351.417 87.7917 347.833 90.25 344.75 93.5C341.75 96.6667 339.375 100.5 337.625 105C335.875 109.417 335 114.375 335 119.875C335 125.042 335.875 129.833 337.625 134.25C339.375 138.667 341.75 142.5 344.75 145.75C347.833 149 351.417 151.583 355.5 153.5C359.667 155.333 364.083 156.25 368.75 156.25C373.417 156.25 377.792 155.375 381.875 153.625C386.042 151.875 389.667 149.417 392.75 146.25C395.833 143.083 398.25 139.25 400 134.75C401.833 130.25 402.75 125.292 402.75 119.875ZM522.125 188C513.875 188 506.125 186.458 498.875 183.375C491.625 180.208 485.25 175.917 479.75 170.5C474.333 165 470.042 158.625 466.875 151.375C463.792 144.125 462.25 136.375 462.25 128.125V88.375H445.625V54.375H462.25V0.875H496.25V54.375H548V88.375H496.25V128.125C496.25 131.708 496.917 135.083 498.25 138.25C499.583 141.333 501.417 144.042 503.75 146.375C506.083 148.708 508.833 150.583 512 152C515.167 153.333 518.542 154 522.125 154H548V188H522.125ZM620.5 155.25C621.833 155.667 623.167 155.958 624.5 156.125C625.833 156.208 627.167 156.25 628.5 156.25C631.833 156.25 635.042 155.792 638.125 154.875C641.208 153.958 644.083 152.667 646.75 151C649.5 149.25 651.917 147.167 654 144.75C656.167 142.25 657.917 139.5 659.25 136.5L684.25 161.625C681.083 166.125 677.417 170.167 673.25 173.75C669.167 177.333 664.708 180.375 659.875 182.875C655.125 185.375 650.083 187.25 644.75 188.5C639.5 189.833 634.083 190.5 628.5 190.5C619.083 190.5 610.208 188.75 601.875 185.25C593.625 181.75 586.375 176.875 580.125 170.625C573.958 164.375 569.083 156.958 565.5 148.375C561.917 139.708 560.125 130.208 560.125 119.875C560.125 109.292 561.917 99.625 565.5 90.875C569.083 82.125 573.958 74.6667 580.125 68.5C586.375 62.3333 593.625 57.5417 601.875 54.125C610.208 50.7083 619.083 49 628.5 49C634.083 49 639.542 49.6667 644.875 51C650.208 52.3333 655.25 54.25 660 56.75C664.833 59.25 669.333 62.3333 673.5 66C677.667 69.5833 681.333 73.625 684.5 78.125L620.5 155.25ZM638 84.875C636.417 84.2917 634.833 83.9167 633.25 83.75C631.75 83.5833 630.167 83.5 628.5 83.5C623.833 83.5 619.417 84.375 615.25 86.125C611.167 87.7917 607.583 90.2083 604.5 93.375C601.5 96.5417 599.125 100.375 597.375 104.875C595.625 109.292 594.75 114.292 594.75 119.875C594.75 121.125 594.792 122.542 594.875 124.125C595.042 125.708 595.25 127.333 595.5 129C595.833 130.583 596.208 132.125 596.625 133.625C597.042 135.125 597.583 136.458 598.25 137.625L638 84.875ZM775.25 188H697.25V154H775.25C777.583 154 779.583 153.167 781.25 151.5C782.917 149.833 783.75 147.833 783.75 145.5C783.75 143.083 782.917 141.5 781.25 140.75C779.583 140 777.583 139.625 775.25 139.625H739.75C733.833 139.625 728.292 138.5 723.125 136.25C717.958 134 713.458 130.958 709.625 127.125C705.792 123.208 702.75 118.667 700.5 113.5C698.333 108.333 697.25 102.792 697.25 96.875C697.25 90.9583 698.333 85.4167 700.5 80.25C702.75 75.0833 705.792 70.5833 709.625 66.75C713.458 62.9167 717.958 59.9167 723.125 57.75C728.292 55.5 733.833 54.375 739.75 54.375H808.875V88.375H739.75C737.417 88.375 735.417 89.2083 733.75 90.875C732.083 92.5417 731.25 94.5417 731.25 96.875C731.25 99.2917 732.083 101.375 733.75 103.125C735.417 104.792 737.417 105.625 739.75 105.625H775.25C781.083 105.625 786.583 106.625 791.75 108.625C796.917 110.542 801.417 113.25 805.25 116.75C809.083 120.25 812.125 124.458 814.375 129.375C816.625 134.292 817.75 139.667 817.75 145.5C817.75 151.417 816.625 156.958 814.375 162.125C812.125 167.208 809.083 171.708 805.25 175.625C801.417 179.458 796.917 182.5 791.75 184.75C786.583 186.917 781.083 188 775.25 188Z" fill="currentColor"/>
</svg>
